<svg width="560" height="144" viewBox="0 0 280 72" xmlns="http://www.w3.org/2000/svg">
  <!--
    DayMory — Logótipo Horizontal
    Conceito C · Fundo Branco
    Versão: 1.0
  -->

  <!-- Ícone -->
  <rect x="0" y="4" width="64" height="64" rx="15" fill="#FFFFFF" stroke="#E5E7EB" stroke-width="0.8"/>
  <path d="M14,10 L50,10 L50,58 L32,68 L14,58 Z" fill="#F8FAFC" stroke="#E2E8F0" stroke-width="0.8" stroke-linejoin="round"/>
  <rect x="14" y="10" width="36" height="3.5" rx="1.5" fill="#E2E8F0"/>
  <rect x="18" y="18" width="3" height="32" rx="1.5" fill="#CBD5E1"/>
  <rect x="24" y="18" width="20" height="4" rx="2" fill="#2563EB"/>
  <rect x="24" y="26" width="14" height="3" rx="1.5" fill="#2563EB" opacity="0.5"/>
  <rect x="24" y="33" width="17" height="3" rx="1.5" fill="#2563EB" opacity="0.35"/>
  <rect x="24" y="40" width="10" height="3" rx="1.5" fill="#2563EB" opacity="0.2"/>
  <rect x="24" y="48" width="20" height="4.5" rx="2.2" fill="#2563EB"/>
  <circle cx="49" cy="50.5" r="4" fill="#1E3A8A"/>

  <!-- Wordmark -->
  <text
    x="80" y="38"
    font-family="system-ui, -apple-system, sans-serif"
    font-size="24"
    font-weight="700"
    fill="#0F172A"
    letter-spacing="-1"
  >Day</text>
  <text
    x="132" y="38"
    font-family="system-ui, -apple-system, sans-serif"
    font-size="24"
    font-weight="400"
    fill="#2563EB"
    letter-spacing="-0.5"
  >Mory</text>

  <!-- Tagline -->
  <text
    x="80" y="54"
    font-family="system-ui, -apple-system, sans-serif"
    font-size="11"
    font-weight="400"
    fill="#94A3B8"
    letter-spacing="0.2"
  >O teu dia, organizado.</text>
</svg>
